<mxfile host="Electron" agent="Mozilla/5.0 (Windows NT 10.0; Win64; x64) AppleWebKit/537.36 (KHTML, like Gecko) draw.io/26.1.1 Chrome/132.0.6834.210 Electron/34.3.3 Safari/537.36" version="26.1.1">
  <diagram name="Page-1" id="5GMRPiJQlNWuv_5ibkK0">
    <mxGraphModel dx="1294" dy="1112" grid="1" gridSize="10" guides="1" tooltips="1" connect="1" arrows="1" fold="1" page="1" pageScale="1" pageWidth="850" pageHeight="1100" math="0" shadow="0">
      <root>
        <mxCell id="0" />
        <mxCell id="1" parent="0" />
        <mxCell id="NMx9omPD6hOHM_O0bVEq-57" value="Downlink System Diagram" style="text;strokeColor=none;fillColor=none;html=1;fontSize=24;fontStyle=5;verticalAlign=middle;align=center;" parent="1" vertex="1">
          <mxGeometry x="250" y="192" width="100" height="40" as="geometry" />
        </mxCell>
        <mxCell id="NMx9omPD6hOHM_O0bVEq-59" value="&lt;font style=&quot;font-size: 17px;&quot;&gt;Processing System (PS)&lt;/font&gt;" style="text;html=1;align=center;verticalAlign=middle;whiteSpace=wrap;rounded=0;" parent="1" vertex="1">
          <mxGeometry x="250" y="442" width="100" height="30" as="geometry" />
        </mxCell>
        <mxCell id="5nSLIUWx2vPofE8MINLa-15" value="Ethernet Source" style="rounded=0;whiteSpace=wrap;html=1;" parent="1" vertex="1">
          <mxGeometry x="80" y="240" width="120" height="60" as="geometry" />
        </mxCell>
        <mxCell id="5nSLIUWx2vPofE8MINLa-16" value="CAN Source" style="rounded=0;whiteSpace=wrap;html=1;" parent="1" vertex="1">
          <mxGeometry x="80" y="310" width="120" height="60" as="geometry" />
        </mxCell>
        <mxCell id="5nSLIUWx2vPofE8MINLa-17" value="I2C Source" style="rounded=0;whiteSpace=wrap;html=1;" parent="1" vertex="1">
          <mxGeometry x="80" y="380" width="120" height="60" as="geometry" />
        </mxCell>
        <mxCell id="5nSLIUWx2vPofE8MINLa-18" value="Linux IPC Source" style="rounded=0;whiteSpace=wrap;html=1;" parent="1" vertex="1">
          <mxGeometry x="80" y="450" width="120" height="60" as="geometry" />
        </mxCell>
        <mxCell id="5nSLIUWx2vPofE8MINLa-19" value="" style="endArrow=none;html=1;rounded=0;exitX=1;exitY=0.5;exitDx=0;exitDy=0;" parent="1" edge="1">
          <mxGeometry width="50" height="50" relative="1" as="geometry">
            <mxPoint x="210" y="270" as="sourcePoint" />
            <mxPoint x="220" y="480" as="targetPoint" />
            <Array as="points">
              <mxPoint x="220" y="270" />
            </Array>
          </mxGeometry>
        </mxCell>
        <mxCell id="5nSLIUWx2vPofE8MINLa-20" value="" style="endArrow=none;html=1;rounded=0;exitX=1;exitY=0.5;exitDx=0;exitDy=0;" parent="1" source="5nSLIUWx2vPofE8MINLa-16" edge="1">
          <mxGeometry width="50" height="50" relative="1" as="geometry">
            <mxPoint x="310" y="460" as="sourcePoint" />
            <mxPoint x="220" y="340" as="targetPoint" />
          </mxGeometry>
        </mxCell>
        <mxCell id="5nSLIUWx2vPofE8MINLa-21" value="" style="endArrow=none;html=1;rounded=0;exitX=1;exitY=0.5;exitDx=0;exitDy=0;" parent="1" source="5nSLIUWx2vPofE8MINLa-17" edge="1">
          <mxGeometry width="50" height="50" relative="1" as="geometry">
            <mxPoint x="310" y="460" as="sourcePoint" />
            <mxPoint x="220" y="410" as="targetPoint" />
          </mxGeometry>
        </mxCell>
        <mxCell id="5nSLIUWx2vPofE8MINLa-22" value="" style="endArrow=none;html=1;rounded=0;exitX=1;exitY=0.5;exitDx=0;exitDy=0;" parent="1" source="5nSLIUWx2vPofE8MINLa-18" edge="1">
          <mxGeometry width="50" height="50" relative="1" as="geometry">
            <mxPoint x="310" y="460" as="sourcePoint" />
            <mxPoint x="220" y="480" as="targetPoint" />
          </mxGeometry>
        </mxCell>
        <mxCell id="5nSLIUWx2vPofE8MINLa-23" value="" style="endArrow=classic;html=1;rounded=0;entryX=0;entryY=0.5;entryDx=0;entryDy=0;exitX=1;exitY=0.5;exitDx=0;exitDy=0;" parent="1" source="5nSLIUWx2vPofE8MINLa-15" target="5nSLIUWx2vPofE8MINLa-24" edge="1">
          <mxGeometry width="50" height="50" relative="1" as="geometry">
            <mxPoint x="210" y="270" as="sourcePoint" />
            <mxPoint x="230" y="270" as="targetPoint" />
          </mxGeometry>
        </mxCell>
        <mxCell id="5nSLIUWx2vPofE8MINLa-26" value="" style="edgeStyle=orthogonalEdgeStyle;rounded=0;orthogonalLoop=1;jettySize=auto;html=1;" parent="1" source="5nSLIUWx2vPofE8MINLa-24" target="5nSLIUWx2vPofE8MINLa-25" edge="1">
          <mxGeometry relative="1" as="geometry" />
        </mxCell>
        <mxCell id="5nSLIUWx2vPofE8MINLa-24" value="System Interface" style="rounded=0;whiteSpace=wrap;html=1;" parent="1" vertex="1">
          <mxGeometry x="240" y="240" width="120" height="60" as="geometry" />
        </mxCell>
        <mxCell id="5nSLIUWx2vPofE8MINLa-25" value="Packet Parser" style="rounded=0;whiteSpace=wrap;html=1;" parent="1" vertex="1">
          <mxGeometry x="400" y="240" width="120" height="60" as="geometry" />
        </mxCell>
        <mxCell id="5nSLIUWx2vPofE8MINLa-48" style="edgeStyle=orthogonalEdgeStyle;rounded=0;orthogonalLoop=1;jettySize=auto;html=1;exitX=0.75;exitY=1;exitDx=0;exitDy=0;entryX=0.75;entryY=0;entryDx=0;entryDy=0;" parent="1" source="5nSLIUWx2vPofE8MINLa-27" target="5nSLIUWx2vPofE8MINLa-45" edge="1">
          <mxGeometry relative="1" as="geometry" />
        </mxCell>
        <mxCell id="5nSLIUWx2vPofE8MINLa-51" value="ACM CMD" style="edgeLabel;html=1;align=center;verticalAlign=middle;resizable=0;points=[];" parent="5nSLIUWx2vPofE8MINLa-48" vertex="1" connectable="0">
          <mxGeometry x="-0.2321" y="1" relative="1" as="geometry">
            <mxPoint as="offset" />
          </mxGeometry>
        </mxCell>
        <mxCell id="5nSLIUWx2vPofE8MINLa-49" style="edgeStyle=orthogonalEdgeStyle;rounded=0;orthogonalLoop=1;jettySize=auto;html=1;exitX=0.25;exitY=1;exitDx=0;exitDy=0;entryX=0.25;entryY=0;entryDx=0;entryDy=0;" parent="1" source="5nSLIUWx2vPofE8MINLa-27" target="5nSLIUWx2vPofE8MINLa-45" edge="1">
          <mxGeometry relative="1" as="geometry" />
        </mxCell>
        <mxCell id="5nSLIUWx2vPofE8MINLa-50" value="Data" style="edgeLabel;html=1;align=center;verticalAlign=middle;resizable=0;points=[];" parent="5nSLIUWx2vPofE8MINLa-49" vertex="1" connectable="0">
          <mxGeometry x="-0.2798" y="-1" relative="1" as="geometry">
            <mxPoint x="1" as="offset" />
          </mxGeometry>
        </mxCell>
        <mxCell id="5nSLIUWx2vPofE8MINLa-27" value="ACM Router" style="rounded=0;whiteSpace=wrap;html=1;" parent="1" vertex="1">
          <mxGeometry x="400" y="342" width="120" height="60" as="geometry" />
        </mxCell>
        <mxCell id="5nSLIUWx2vPofE8MINLa-37" value="" style="endArrow=classic;html=1;rounded=0;exitX=0.25;exitY=1;exitDx=0;exitDy=0;entryX=0.25;entryY=0;entryDx=0;entryDy=0;" parent="1" source="5nSLIUWx2vPofE8MINLa-25" target="5nSLIUWx2vPofE8MINLa-27" edge="1">
          <mxGeometry width="50" height="50" relative="1" as="geometry">
            <mxPoint x="520" y="390" as="sourcePoint" />
            <mxPoint x="570" y="340" as="targetPoint" />
          </mxGeometry>
        </mxCell>
        <mxCell id="5nSLIUWx2vPofE8MINLa-39" value="Packet" style="edgeLabel;html=1;align=center;verticalAlign=middle;resizable=0;points=[];" parent="5nSLIUWx2vPofE8MINLa-37" vertex="1" connectable="0">
          <mxGeometry x="-0.2449" relative="1" as="geometry">
            <mxPoint y="4" as="offset" />
          </mxGeometry>
        </mxCell>
        <mxCell id="5nSLIUWx2vPofE8MINLa-38" value="" style="endArrow=classic;html=1;rounded=0;exitX=0.25;exitY=1;exitDx=0;exitDy=0;" parent="1" edge="1">
          <mxGeometry width="50" height="50" relative="1" as="geometry">
            <mxPoint x="490" y="302" as="sourcePoint" />
            <mxPoint x="490" y="340" as="targetPoint" />
          </mxGeometry>
        </mxCell>
        <mxCell id="5nSLIUWx2vPofE8MINLa-42" value="Priority" style="edgeLabel;html=1;align=center;verticalAlign=middle;resizable=0;points=[];" parent="5nSLIUWx2vPofE8MINLa-38" vertex="1" connectable="0">
          <mxGeometry x="0.0136" y="1" relative="1" as="geometry">
            <mxPoint y="-3" as="offset" />
          </mxGeometry>
        </mxCell>
        <mxCell id="5nSLIUWx2vPofE8MINLa-44" value="" style="edgeStyle=orthogonalEdgeStyle;rounded=0;orthogonalLoop=1;jettySize=auto;html=1;" parent="1" source="5nSLIUWx2vPofE8MINLa-43" target="5nSLIUWx2vPofE8MINLa-27" edge="1">
          <mxGeometry relative="1" as="geometry" />
        </mxCell>
        <mxCell id="5nSLIUWx2vPofE8MINLa-43" value="Channel State&lt;div&gt;C/N+I&lt;/div&gt;" style="rounded=0;whiteSpace=wrap;html=1;" parent="1" vertex="1">
          <mxGeometry x="240" y="342" width="120" height="60" as="geometry" />
        </mxCell>
        <mxCell id="5nSLIUWx2vPofE8MINLa-57" value="" style="edgeStyle=orthogonalEdgeStyle;rounded=0;orthogonalLoop=1;jettySize=auto;html=1;entryX=0.5;entryY=0;entryDx=0;entryDy=0;exitX=0.25;exitY=1;exitDx=0;exitDy=0;" parent="1" source="5nSLIUWx2vPofE8MINLa-45" target="5nSLIUWx2vPofE8MINLa-52" edge="1">
          <mxGeometry relative="1" as="geometry" />
        </mxCell>
        <mxCell id="5nSLIUWx2vPofE8MINLa-58" value="" style="edgeStyle=orthogonalEdgeStyle;rounded=0;orthogonalLoop=1;jettySize=auto;html=1;" parent="1" source="5nSLIUWx2vPofE8MINLa-45" target="5nSLIUWx2vPofE8MINLa-53" edge="1">
          <mxGeometry relative="1" as="geometry">
            <Array as="points">
              <mxPoint x="490" y="530" />
              <mxPoint x="495" y="530" />
            </Array>
          </mxGeometry>
        </mxCell>
        <mxCell id="5nSLIUWx2vPofE8MINLa-45" value="PL Interface" style="rounded=0;whiteSpace=wrap;html=1;" parent="1" vertex="1">
          <mxGeometry x="400" y="450" width="120" height="60" as="geometry" />
        </mxCell>
        <mxCell id="5nSLIUWx2vPofE8MINLa-62" value="" style="edgeStyle=orthogonalEdgeStyle;rounded=0;orthogonalLoop=1;jettySize=auto;html=1;" parent="1" source="5nSLIUWx2vPofE8MINLa-52" target="5nSLIUWx2vPofE8MINLa-59" edge="1">
          <mxGeometry relative="1" as="geometry" />
        </mxCell>
        <mxCell id="5nSLIUWx2vPofE8MINLa-52" value="Control&lt;div&gt;&lt;div&gt;Registers&lt;/div&gt;&lt;/div&gt;" style="rounded=0;whiteSpace=wrap;html=1;" parent="1" vertex="1">
          <mxGeometry x="395" y="550" width="60" height="60" as="geometry" />
        </mxCell>
        <mxCell id="5nSLIUWx2vPofE8MINLa-63" style="edgeStyle=orthogonalEdgeStyle;rounded=0;orthogonalLoop=1;jettySize=auto;html=1;entryX=0.5;entryY=1;entryDx=0;entryDy=0;" parent="1" source="5nSLIUWx2vPofE8MINLa-53" target="5nSLIUWx2vPofE8MINLa-59" edge="1">
          <mxGeometry relative="1" as="geometry">
            <Array as="points">
              <mxPoint x="500" y="630" />
              <mxPoint x="300" y="630" />
            </Array>
          </mxGeometry>
        </mxCell>
        <mxCell id="5nSLIUWx2vPofE8MINLa-53" value="Data&lt;div&gt;Buffer&lt;/div&gt;" style="rounded=0;whiteSpace=wrap;html=1;" parent="1" vertex="1">
          <mxGeometry x="470" y="550" width="60" height="60" as="geometry" />
        </mxCell>
        <mxCell id="5nSLIUWx2vPofE8MINLa-61" value="" style="edgeStyle=orthogonalEdgeStyle;rounded=0;orthogonalLoop=1;jettySize=auto;html=1;" parent="1" source="5nSLIUWx2vPofE8MINLa-59" target="5nSLIUWx2vPofE8MINLa-60" edge="1">
          <mxGeometry relative="1" as="geometry" />
        </mxCell>
        <mxCell id="5nSLIUWx2vPofE8MINLa-83" value="IQ" style="edgeLabel;html=1;align=center;verticalAlign=middle;resizable=0;points=[];" parent="5nSLIUWx2vPofE8MINLa-61" vertex="1" connectable="0">
          <mxGeometry x="0.1" y="3" relative="1" as="geometry">
            <mxPoint x="2" y="-3" as="offset" />
          </mxGeometry>
        </mxCell>
        <mxCell id="5nSLIUWx2vPofE8MINLa-59" value="DVB-S2 Modulator" style="rounded=0;whiteSpace=wrap;html=1;" parent="1" vertex="1">
          <mxGeometry x="240" y="550" width="120" height="60" as="geometry" />
        </mxCell>
        <mxCell id="5nSLIUWx2vPofE8MINLa-71" value="" style="edgeStyle=orthogonalEdgeStyle;rounded=0;orthogonalLoop=1;jettySize=auto;html=1;" parent="1" edge="1">
          <mxGeometry relative="1" as="geometry">
            <mxPoint x="170" y="610" as="sourcePoint" />
            <mxPoint x="170" y="680" as="targetPoint" />
          </mxGeometry>
        </mxCell>
        <mxCell id="5nSLIUWx2vPofE8MINLa-84" value="LVDS" style="edgeLabel;html=1;align=center;verticalAlign=middle;resizable=0;points=[];" parent="5nSLIUWx2vPofE8MINLa-71" vertex="1" connectable="0">
          <mxGeometry x="0.3714" y="4" relative="1" as="geometry">
            <mxPoint x="-4" y="-5" as="offset" />
          </mxGeometry>
        </mxCell>
        <mxCell id="5nSLIUWx2vPofE8MINLa-60" value="AD936x Controller" style="rounded=0;whiteSpace=wrap;html=1;" parent="1" vertex="1">
          <mxGeometry x="80" y="550" width="120" height="60" as="geometry" />
        </mxCell>
        <mxCell id="5nSLIUWx2vPofE8MINLa-64" value="" style="endArrow=none;dashed=1;html=1;dashPattern=1 3;strokeWidth=2;rounded=0;" parent="1" edge="1">
          <mxGeometry width="50" height="50" relative="1" as="geometry">
            <mxPoint x="50" y="520" as="sourcePoint" />
            <mxPoint x="550" y="520" as="targetPoint" />
          </mxGeometry>
        </mxCell>
        <mxCell id="5nSLIUWx2vPofE8MINLa-65" value="&lt;font style=&quot;font-size: 17px;&quot;&gt;Programmable Logic (PL)&lt;/font&gt;" style="text;html=1;align=center;verticalAlign=middle;whiteSpace=wrap;rounded=0;" parent="1" vertex="1">
          <mxGeometry x="195" y="520" width="210" height="30" as="geometry" />
        </mxCell>
        <mxCell id="5nSLIUWx2vPofE8MINLa-76" style="edgeStyle=orthogonalEdgeStyle;rounded=0;orthogonalLoop=1;jettySize=auto;html=1;entryX=0;entryY=0.5;entryDx=0;entryDy=0;" parent="1" source="5nSLIUWx2vPofE8MINLa-66" target="5nSLIUWx2vPofE8MINLa-67" edge="1">
          <mxGeometry relative="1" as="geometry" />
        </mxCell>
        <mxCell id="5nSLIUWx2vPofE8MINLa-86" value="RF" style="edgeLabel;html=1;align=center;verticalAlign=middle;resizable=0;points=[];" parent="5nSLIUWx2vPofE8MINLa-76" vertex="1" connectable="0">
          <mxGeometry x="0.1" y="-2" relative="1" as="geometry">
            <mxPoint x="-4" y="-3" as="offset" />
          </mxGeometry>
        </mxCell>
        <mxCell id="5nSLIUWx2vPofE8MINLa-66" value="FMCOMMS&lt;br&gt;AD936x" style="rounded=0;whiteSpace=wrap;html=1;" parent="1" vertex="1">
          <mxGeometry x="80" y="680" width="120" height="60" as="geometry" />
        </mxCell>
        <mxCell id="5nSLIUWx2vPofE8MINLa-67" value="RF OUT" style="rounded=0;whiteSpace=wrap;html=1;" parent="1" vertex="1">
          <mxGeometry x="240" y="680" width="120" height="60" as="geometry" />
        </mxCell>
        <mxCell id="5nSLIUWx2vPofE8MINLa-69" value="&lt;font style=&quot;font-size: 17px;&quot;&gt;External&lt;/font&gt;" style="text;html=1;align=center;verticalAlign=middle;whiteSpace=wrap;rounded=0;" parent="1" vertex="1">
          <mxGeometry x="200" y="640" width="210" height="30" as="geometry" />
        </mxCell>
        <mxCell id="5nSLIUWx2vPofE8MINLa-70" value="" style="endArrow=none;dashed=1;html=1;dashPattern=1 3;strokeWidth=2;rounded=0;" parent="1" edge="1">
          <mxGeometry width="50" height="50" relative="1" as="geometry">
            <mxPoint x="50" y="640" as="sourcePoint" />
            <mxPoint x="550" y="640" as="targetPoint" />
          </mxGeometry>
        </mxCell>
        <mxCell id="5nSLIUWx2vPofE8MINLa-78" value="" style="line;strokeWidth=4;html=1;perimeter=backbonePerimeter;points=[];outlineConnect=0;rotation=90;" parent="1" vertex="1">
          <mxGeometry x="-238.5" y="478.5" width="570" height="2" as="geometry" />
        </mxCell>
        <mxCell id="5nSLIUWx2vPofE8MINLa-79" value="" style="line;strokeWidth=4;html=1;perimeter=backbonePerimeter;points=[];outlineConnect=0;" parent="1" vertex="1">
          <mxGeometry x="45" y="762" width="505" height="2" as="geometry" />
        </mxCell>
        <mxCell id="5nSLIUWx2vPofE8MINLa-81" value="" style="line;strokeWidth=4;html=1;perimeter=backbonePerimeter;points=[];outlineConnect=0;rotation=90;" parent="1" vertex="1">
          <mxGeometry x="264" y="477.5" width="570" height="2" as="geometry" />
        </mxCell>
        <mxCell id="5nSLIUWx2vPofE8MINLa-82" value="" style="line;strokeWidth=4;html=1;perimeter=backbonePerimeter;points=[];outlineConnect=0;" parent="1" vertex="1">
          <mxGeometry x="45" y="194" width="505" height="2" as="geometry" />
        </mxCell>
        <mxCell id="r1nxjIIDjFXjWJiGZN5j-1" value="" style="edgeStyle=orthogonalEdgeStyle;rounded=0;orthogonalLoop=1;jettySize=auto;html=1;" edge="1" parent="1">
          <mxGeometry relative="1" as="geometry">
            <mxPoint x="110" y="610" as="sourcePoint" />
            <mxPoint x="110" y="680" as="targetPoint" />
          </mxGeometry>
        </mxCell>
        <mxCell id="r1nxjIIDjFXjWJiGZN5j-2" value="SPI" style="edgeLabel;html=1;align=center;verticalAlign=middle;resizable=0;points=[];" vertex="1" connectable="0" parent="r1nxjIIDjFXjWJiGZN5j-1">
          <mxGeometry x="0.3714" y="4" relative="1" as="geometry">
            <mxPoint x="-4" y="-5" as="offset" />
          </mxGeometry>
        </mxCell>
      </root>
    </mxGraphModel>
  </diagram>
</mxfile>
